# xmcd
#
# Track frame offsets:
#   150
#   16257
#   34167
#   50715
#   65317
#   84795
#   102827
#   123995
#   140965
#   163832
#   183385
#   199495
#   217405
#   233952
#   248555
#   268030
#   286062
#   307230
#
# Disc length: 4399 seconds
#
# Revision: 0
# Processed by: cddbd v1.5.1PL0 Copyright (c) Steve Scherf et al.
# Submitted via: uFREEDB ActiveX Control 1.5
#
DISCID=12112d12
DTITLE=Marli Oliveira - Deus Fiel
DYEAR=1900
DGENRE=Gospel and Religious
TTITLE0=Senhor dos Exércitos
TTITLE1=Louvor ao Criador
TTITLE2=Existe um Deus
TTITLE3=Dê Um Sorriso
TTITLE4=Jesus É o Nome
TTITLE5=Tu És Tudo para Mim
TTITLE6=Noites Frias
TTITLE7=Vencedores
TTITLE8=Assim é o Senhor
TTITLE9=Como Será o Dia
TTITLE10=
TTITLE11=
TTITLE12=
TTITLE13=
TTITLE14=
TTITLE15=
TTITLE16=
TTITLE17=
EXTD=
EXTT0=
EXTT1=
EXTT2=
EXTT3=
EXTT4=
EXTT5=
EXTT6=
EXTT7=
EXTT8=
EXTT9=
EXTT10=
EXTT11=
EXTT12=
EXTT13=
EXTT14=
EXTT15=
EXTT16=
EXTT17=
PLAYORDER=
